<svg xmlns="http://www.w3.org/2000/svg" width="74" height="70" viewBox="0 0 74 70"><g fill="#81B3D2"><path d="M69.854 46.71H4.05c-2.273 0-4.134 1.94-4.134 4.313v3.504c0 2.372 1.86 4.313 4.135 4.313h.93v1.053c0 5.536 4.342 10.065 9.65 10.065h44.645c5.306 0 9.648-4.53 9.648-10.065V58.84h.93c2.274 0 4.135-1.94 4.135-4.313v-3.504c0-2.373-1.86-4.313-4.134-4.313zm-3.848 13.184c0 3.87-3.02 7.02-6.73 7.02H14.63c-3.712 0-6.732-3.15-6.732-7.02V58.84h58.107v1.054zm5.065-5.367c0 .688-.557 1.27-1.217 1.27H4.05c-.66 0-1.216-.58-1.216-1.27v-3.504c0-.688.558-1.27 1.217-1.27h65.803c.66 0 1.218.58 1.218 1.27v3.504zM15.634 38.406l5.323 4.06 5.326-4.06 5.328 4.06 5.33-4.06 5.327 4.06 5.33-4.06 5.326 4.06 5.33-4.06 5.336 4.058 6.193-4.712-1.72-2.46-4.474 3.404-5.337-4.057-5.33 4.055-5.327-4.057-5.33 4.057-5.327-4.057-5.33 4.057-5.327-4.057-5.325 4.057-5.323-4.057-5.327 4.057-4.467-3.4-1.72 2.456 6.188 4.715M7.978 31.544h60.877c.04-.62.07-1.24.07-1.87 0-.394-.017-.783-.033-1.173C68.227 12.658 54.186 0 36.952 0 19.72 0 5.677 12.657 5.012 28.5c-.016.39-.03.78-.03 1.174 0 .63.027 1.25.07 1.87h2.926zm28.974-28.5c15.59 0 28.35 11.315 29.02 25.457H7.933C8.603 14.36 21.36 3.044 36.95 3.044z"/><ellipse cx="36.952" cy="15.26" rx="1.945" ry="2.03"/><ellipse cx="29.172" cy="10.23" rx="1.946" ry="2.03"/><ellipse cx="44.732" cy="10.23" rx="1.946" ry="2.03"/></g></svg>