<svg xmlns="http://www.w3.org/2000/svg" width="75" height="72" viewBox="0 0 75 72"><g fill="#81B3D2"><path d="M29.656 65.033h16V41.21h-16v23.823zm2.937-20.9h10.125V62.11H32.593V44.134z"/><path d="M72.77 39.253l2.077-2.068-9.908-9.865V0H51.126v13.567L37.5 0 .152 37.185l2.077 2.068 7.83-7.795v37.618H6.125V72H70v-2.924h-5.06V31.458l7.83 7.795zM62.003 69.076H13V28.534L37.5 4.15l24.502 24.384v40.542zm0-44.682l-7.938-7.902V2.924h7.938v21.47z"/><path d="M29.906 27.08c0 4.26 3.47 7.713 7.75 7.713 4.28 0 7.75-3.452 7.75-7.713 0-4.26-3.47-7.713-7.75-7.713-4.28 0-7.75 3.454-7.75 7.713zm7.75-4.945c2.744 0 4.97 2.214 4.97 4.945 0 2.732-2.226 4.948-4.97 4.948-2.746 0-4.97-2.216-4.97-4.948 0-2.73 2.225-4.945 4.97-4.945zM17.06 41.21h3v3.92h-3zM23 41.21h3v3.92h-3zM17.06 47.182h3v3.92h-3zM23 47.182h3v3.92h-3zM48.998 41.21h3v3.92h-3zM54.936 41.21h3v3.92h-3zM48.998 47.182h3v3.92h-3zM54.936 47.182h3v3.92h-3z"/></g></svg>