<svg xmlns="http://www.w3.org/2000/svg" width="64" height="76" viewBox="0 0 64 76"><path fill-rule="evenodd" clip-rule="evenodd" fill="#81B3D2" d="M61.097 22.5H36.312C50.125 15.603 51.23 11.25 50.72 8.817c-1.162-3.963-5.692-7.023-10.002-5.407-5.57 2.088-7.137 10.387-8.644 16.386-1.924-6.07-3.784-13.814-8.136-17.737C22.678.92 20.843-.206 18.175.03c-4.026.357-9.802 5.383-7.458 10.982 2.25 5.378 9.687 8.777 14.578 11.49H2.88C1.294 22.5 0 23.79 0 25.37v11.322c0 1.578 1.295 2.87 2.88 2.87h.273V76h57.84V39.56h.104c1.586 0 2.88-1.29 2.88-2.868V25.37c0-1.578-1.294-2.87-2.88-2.87zM42.413 5.945c2.103-.31 4.982 1.3 5.255 3.21.393 2.755-3.4 5.254-5.086 6.42-2.523 1.744-4.928 2.643-7.287 4.055.884-3.69 2.55-13.012 7.118-13.686zM19.53 15.912c-2.224-1.485-6.543-4.43-6.44-7.77.113-3.596 5.744-6.57 8.815-3.887 3.856 3.37 5.713 11.105 7.12 16.557-3.25-1.54-6.33-2.788-9.494-4.9zm5.973 57.114H6.136V39.56h19.368v33.466zm0-36.502H3.046V25.538h22.457v10.986zm10.157 0v36.504h-7.174V25.54h7.174v10.986zm22.35 36.502H38.645V39.56H58.01v33.466zm2.92-36.502H38.645V25.538H60.93v10.986z"/></svg>