<svg xmlns="http://www.w3.org/2000/svg" xmlns:xlink="http://www.w3.org/1999/xlink" width="17" height="15" viewBox="0 0 17 15"><image overflow="visible" width="17" height="15" xlink:href="t.png"/><path fill="#FFF" d="M10.95.144c1.685-.496 2.984.27 3.577 1.18.673-.232 1.33-.482 2.01-.71-.003.862-.52 1.514-.856 1.77.686.17 1.305-.492 1.305-.492-.17 1-1.006 1.788-1.563 2.024-.23 6.75-3.175 11.217-10.077 11.082H4.9c-.41 0-4.165-.46-4.9-1.887 2.272.197 3.894-.42 4.694-1.176-.96-.3-2.68-.477-2.98-2.95.35.106.565.228 1.19.12C1.705 8.246.375 7.53.45 5.33c.285.328 1.067.536 1.34.472-.703-.24-1.97-3.36-.894-4.952C2.712 2.704 4.63 4.456 8.046 4.623 8.254 2.33 9.183.793 10.95.143z"/></svg>